{"title":"Ellen_JUST_THE_INTERVIEWS_720p_20110411_TTL","uid":6316691,"size":787285299,"categoryP":"video","categoryS":"hd___tv_shows","magnet":"?xt=urn:btih:40553e7eed5dca544732f4ed7d98ba4015fcfe0b&amp;dn=Ellen_JUST_THE_INTERVIEWS_720p_20110411_TTL&amp;tr=udp%3A%2F%2Ftracker.openbittorrent.com%3A80&amp;tr=udp%3A%2F%2Fopen.demonii.com%3A1337&amp;tr=udp%3A%2F%2Ftracker.coppersurfer.tk%3A6969&amp;tr=udp%3A%2F%2Fexodus.desync.com%3A6969","seeders":0,"leechers":0,"uploader":"thetorrentlord","files":5,"time":1302729094,"description":"These are just the interviews:\t\t\t\t\t\t\t\t\t\t\n\n\t\t\t\t\t\t\t\t\t\n\nDwayne_Johnson_720p_20110411_TTL\t\t\t\t\t\t\t\t\t\n\n\t\t\t\t\t\t\t\t\t\n\nMatthew_Morrison_FULL_SEGMENT_720p_20110407_TTL\t\t\t\t\t\t\t\t\n\n\t\t\t\t\t\t\t\t\t\t\t \n\nMatthew_Morrison_SONG_ONLY_720p_20110407_TTL \t\t\t\t\t\t\t\t\n\n\t\t\t\t\t\t\t\t\t\t\t\t\t\n\nand the live song.(includes an MP3). \t\t\t\t\t\t\t\t\t\n\n\t\t\t\t\t\t\t\t\t\t\t\t\t\n\nEnjoy and please share.\t\t\t\t\t\t\t\t\t\t\t\n\n\t\t\t\t\t\t\t\t\t\t\t\t\t\n\n\t\t\t\t\t\t\t\t\t\t\t\t\t\n\n\t\t\t\t\t\t\t\t\t\t\t\t\t\n\n\t\t\t\t\t\n\n******************************************************************************************************\n\n****************************************************************************************************\t\n\n\t\t\t\t\t\t\t\t\t\t\t\t\t\n\n\t\t\t\t\t\t\t\t\t\t\t\t\t\n\n\t\t\t\t\t\t\t\t\t\t\t\t\t\n\nEllen_Dwayne_Johnson_720p_20110411_TTL.avi\nFormat                           : AVI\nFormat/Info                      : Audio Video Interleave\nFile size                        : 330 MiB\nDuration                         : 20mn 40s\nOverall bit rate                 : 2 235 Kbps\nMovie name                       : Ellen_Dwayne Johnson_720p_20110411_TTL.mpg\nDirector                         : created.with.SUPER(C).v2010.bld.37\nWriting application              : SUPER(C)   \n\nVideo\nID                               : 0\nFormat                           : MPEG-4 Visual\nFormat profile                   : Simple@L3\nFormat settings, BVOP            : No\nFormat settings, QPel            : No\nFormat settings, GMC             : No warppoints\nFormat settings, Matrix          : Default (H.263)\nCodec ID                         : XVID\nCodec ID/Hint                    : XviD\nDuration                         : 10mn 20s\nBit rate                         : 4 345 Kbps\nWidth                            : 1 280 pixels\nHeight                           : 720 pixels\nDisplay aspect ratio             : 16:9\nFrame rate                       : 29.970 fps\nResolution                       : 8 bits\nColorimetry                      : 4:2:0\nScan type                        : Progressive\nBits/(Pixel*Frame)               : 0.157\nStream size                      : 321 MiB (97%)\nWriting library                  : XviD 1.1.2 (UTC 2006-11-01)\n\nAudio\nID                               : 1\nFormat                           : MPEG Audio\nFormat version                   : Version 2\nFormat profile                   : Layer 3\nMode                             : Joint stereo\nFormat_Settings_ModeExtension    : MS Stereo\nCodec ID                         : 55\nCodec ID/Hint                    : MP3\nDuration                         : 20mn 40s\nBit rate mode                    : Constant\nBit rate                         : 112 Kbps\nChannel(s)                       : 2 channels\nSampling rate                    : 22.05 KHz\nStream size                      : 8.28 MiB (3%)\nAlignment                        : Aligned on interleaves\nInterleave, duration             : 26 ms (0.78 video frame)\nInterleave, preload duration     : 26 ms\n\n","torrent":{"xt":"urn:btih:40553e7eed5dca544732f4ed7d98ba4015fcfe0b","amp;dn":"Ellen_JUST_THE_INTERVIEWS_720p_20110411_TTL","amp;tr":["udp%3A%2F%2Ftracker.openbittorrent.com%3A80","udp%3A%2F%2Fopen.demonii.com%3A1337","udp%3A%2F%2Ftracker.coppersurfer.tk%3A6969","udp%3A%2F%2Fexodus.desync.com%3A6969"],"infoHash":"40553e7eed5dca544732f4ed7d98ba4015fcfe0b","infoHashBuffer":{"type":"Buffer","data":[64,85,62,126,237,93,202,84,71,50,244,237,125,152,186,64,21,252,254,11]},"announce":[],"urlList":[]}}